HIERARCHY
ROOT Hips
{
  OFFSET 126.96 91.9987 35.2002
  CHANNELS 6 Xposition Yposition Zposition Zrotation Xrotation Yrotation
  JOINT RightUpLeg
  {
    OFFSET -9.21262 -1.62705 0.0892923
    CHANNELS 3 Zrotation Xrotation Yrotation
    JOINT RightLeg
    {
      OFFSET 0.0960154 -41.8606 0.153467
      CHANNELS 3 Zrotation Xrotation Yrotation
      JOINT RightFoot
      {
        OFFSET 1.33859 -39.7491 3.70458
        CHANNELS 3 Zrotation Xrotation Yrotation
        End Site
        {
          OFFSET 0 -7.69 17.5
        }
      }
    }
  }
  JOINT LeftUpLeg
  {
    OFFSET 9.28909 -1.62806 0.0108209
    CHANNELS 3 Zrotation Xrotation Yrotation
    JOINT LeftLeg
    {
      OFFSET 0.0929201 -41.8886 0.0218006
      CHANNELS 3 Zrotation Xrotation Yrotation
      JOINT LeftFoot
      {
        OFFSET -1.57781 -41.3397 -3.31563
        CHANNELS 3 Zrotation Xrotation Yrotation
        End Site
        {
          OFFSET 0 -7.69 17.5
        }
      }
    }
  }
  JOINT Spine
  {
    OFFSET 0.0128959 14.3037 0.0259321
    CHANNELS 3 Zrotation Xrotation Yrotation
    JOINT Spine1
    {
      OFFSET 0.0143034 9.71252 0.015398
      CHANNELS 3 Zrotation Xrotation Yrotation
      JOINT Spine2
      {
        OFFSET 0.0468817 10.117 -0.0314137
        CHANNELS 3 Zrotation Xrotation Yrotation
        JOINT Spine3
        {
          OFFSET 0.0102655 9.71178 0.00221616
          CHANNELS 3 Zrotation Xrotation Yrotation
          JOINT Neck
          {
            OFFSET -0.0402596 10.3794 0.0231037
            CHANNELS 3 Zrotation Xrotation Yrotation
            JOINT Head
            {
              OFFSET -0.03453 9.49168 0.0708427
              CHANNELS 3 Zrotation Xrotation Yrotation
              End Site
              {
                OFFSET 0 15.95 0
              }
            }
          }
          JOINT RightShoulder
          {
            OFFSET -3.17991 6.93495 0.0309862
            CHANNELS 3 Zrotation Xrotation Yrotation
            JOINT RightArm
            {
              OFFSET -12.8253 0.0342167 0.035901
              CHANNELS 3 Zrotation Xrotation Yrotation
              JOINT RightForeArm
              {
                OFFSET -26.4423 -0.000685918 0.00421057
                CHANNELS 3 Zrotation Xrotation Yrotation
                JOINT RightHand
                {
                  OFFSET -25.9842 -0.0662606 -0.0268032
                  CHANNELS 3 Zrotation Xrotation Yrotation
                  JOINT RightHandThumb1
                  {
                    OFFSET -2.48905 0.190105 3.12053
                    CHANNELS 3 Zrotation Xrotation Yrotation
                    JOINT RightHandThumb2
                    {
                      OFFSET -3.68274 0 0
                      CHANNELS 3 Zrotation Xrotation Yrotation
                      JOINT RightHandThumb3
                      {
                        OFFSET -2.55832 0 0
                        CHANNELS 3 Zrotation Xrotation Yrotation
                        End Site
                        {
                          OFFSET -2.194 0 0
                        }
                      }
                    }
                  }
                  JOINT RightInHandIndex
                  {
                    OFFSET -3.22368 0.508421 1.97842
                    CHANNELS 3 Zrotation Xrotation Yrotation
                    JOINT RightHandIndex1
                    {
                      OFFSET -5.21684 -0.091368 0.999158
                      CHANNELS 3 Zrotation Xrotation Yrotation
                      JOINT RightHandIndex2
                      {
                        OFFSET -3.61937 0 0
                        CHANNELS 3 Zrotation Xrotation Yrotation
                        JOINT RightHandIndex3
                        {
                          OFFSET -2.0521 0 0
                          CHANNELS 3 Zrotation Xrotation Yrotation
                          End Site
                          {
                            OFFSET -1.805 0 0
                          }
                        }
                      }
                    }
                  }
                  JOINT RightInHandMiddle
                  {
                    OFFSET -3.38211 0.517263 0.756737
                    CHANNELS 3 Zrotation Xrotation Yrotation
                    JOINT RightHandMiddle1
                    {
                      OFFSET -5.17411 -0.084 0.313895
                      CHANNELS 3 Zrotation Xrotation Yrotation
                      JOINT RightHandMiddle2
                      {
                        OFFSET -3.94947 0 0
                        CHANNELS 3 Zrotation Xrotation Yrotation
                        JOINT RightHandMiddle3
                        {
                          OFFSET -2.47579 0 0
                          CHANNELS 3 Zrotation Xrotation Yrotation
                          End Site
                          {
                            OFFSET -1.975 0 0
                          }
                        }
                      }
                    }
                  }
                  JOINT RightInHandRing
                  {
                    OFFSET -3.36516 0.537895 -0.128947
                    CHANNELS 3 Zrotation Xrotation Yrotation
                    JOINT RightHandRing1
                    {
                      OFFSET -4.63474 -0.022105 -0.478947
                      CHANNELS 3 Zrotation Xrotation Yrotation
                      JOINT RightHandRing2
                      {
                        OFFSET -3.44238 0 0
                        CHANNELS 3 Zrotation Xrotation Yrotation
                        JOINT RightHandRing3
                        {
                          OFFSET -2.3881 0 0
                          CHANNELS 3 Zrotation Xrotation Yrotation
                          End Site
                          {
                            OFFSET -1.857 0 0
                          }
                        }
                      }
                    }
                  }
                  JOINT RightInHandPinky
                  {
                    OFFSET -3.16105 0.469368 -1.20179
                    CHANNELS 3 Zrotation Xrotation Yrotation
                    JOINT RightHandPinky1
                    {
                      OFFSET -4.14105 -0.022105 -1.09053
                      CHANNELS 3 Zrotation Xrotation Yrotation
                      JOINT RightHandPinky2
                      {
                        OFFSET -2.75653 0 0
                        CHANNELS 3 Zrotation Xrotation Yrotation
                        JOINT RightHandPinky3
                        {
                          OFFSET -1.74189 0 0
                          CHANNELS 3 Zrotation Xrotation Yrotation
                          End Site
                          {
                            OFFSET -1.645 0 0
                          }
                        }
                      }
                    }
                  }
                }
              }
            }
          }
          JOINT LeftShoulder
          {
            OFFSET 3.21113 6.90952 -0.0469957
            CHANNELS 3 Zrotation Xrotation Yrotation
            JOINT LeftArm
            {
              OFFSET 12.7919 -0.0331125 -0.0859637
              CHANNELS 3 Zrotation Xrotation Yrotation
              JOINT LeftForeArm
              {
                OFFSET 26.4755 -0.0026531 -0.0242133
                CHANNELS 3 Zrotation Xrotation Yrotation
                JOINT LeftHand
                {
                  OFFSET 25.9936 -0.03295 -0.105102
                  CHANNELS 3 Zrotation Xrotation Yrotation
                  JOINT LeftHandThumb1
                  {
                    OFFSET 2.48905 0.190105 3.12053
                    CHANNELS 3 Zrotation Xrotation Yrotation
                    JOINT LeftHandThumb2
                    {
                      OFFSET 3.68274 0 0
                      CHANNELS 3 Zrotation Xrotation Yrotation
                      JOINT LeftHandThumb3
                      {
                        OFFSET 2.55832 0 0
                        CHANNELS 3 Zrotation Xrotation Yrotation
                        End Site
                        {
                          OFFSET 2.194 0 0
                        }
                      }
                    }
                  }
                  JOINT LeftInHandIndex
                  {
                    OFFSET 3.22368 0.508421 1.97842
                    CHANNELS 3 Zrotation Xrotation Yrotation
                    JOINT LeftHandIndex1
                    {
                      OFFSET 5.21684 -0.091368 0.999158
                      CHANNELS 3 Zrotation Xrotation Yrotation
                      JOINT LeftHandIndex2
                      {
                        OFFSET 3.61937 0 0
                        CHANNELS 3 Zrotation Xrotation Yrotation
                        JOINT LeftHandIndex3
                        {
                          OFFSET 2.0521 0 0
                          CHANNELS 3 Zrotation Xrotation Yrotation
                          End Site
                          {
                            OFFSET 1.805 0 0
                          }
                        }
                      }
                    }
                  }
                  JOINT LeftInHandMiddle
                  {
                    OFFSET 3.38211 0.517263 0.756737
                    CHANNELS 3 Zrotation Xrotation Yrotation
                    JOINT LeftHandMiddle1
                    {
                      OFFSET 5.17411 -0.084 0.313895
                      CHANNELS 3 Zrotation Xrotation Yrotation
                      JOINT LeftHandMiddle2
                      {
                        OFFSET 3.94947 0 0
                        CHANNELS 3 Zrotation Xrotation Yrotation
                        JOINT LeftHandMiddle3
                        {
                          OFFSET 2.47579 0 0
                          CHANNELS 3 Zrotation Xrotation Yrotation
                          End Site
                          {
                            OFFSET 1.975 0 0
                          }
                        }
                      }
                    }
                  }
                  JOINT LeftInHandRing
                  {
                    OFFSET 3.36516 0.537895 -0.128947
                    CHANNELS 3 Zrotation Xrotation Yrotation
                    JOINT LeftHandRing1
                    {
                      OFFSET 4.63474 -0.022105 -0.478947
                      CHANNELS 3 Zrotation Xrotation Yrotation
                      JOINT LeftHandRing2
                      {
                        OFFSET 3.44238 0 0
                        CHANNELS 3 Zrotation Xrotation Yrotation
                        JOINT LeftHandRing3
                        {
                          OFFSET 2.3881 0 0
                          CHANNELS 3 Zrotation Xrotation Yrotation
                          End Site
                          {
                            OFFSET 1.857 0 0
                          }
                        }
                      }
                    }
                  }
                  JOINT LeftInHandPinky
                  {
                    OFFSET 3.16105 0.469368 -1.20179
                    CHANNELS 3 Zrotation Xrotation Yrotation
                    JOINT LeftHandPinky1
                    {
                      OFFSET 4.14105 -0.022105 -1.09053
                      CHANNELS 3 Zrotation Xrotation Yrotation
                      JOINT LeftHandPinky2
                      {
                        OFFSET 2.75653 0 0
                        CHANNELS 3 Zrotation Xrotation Yrotation
                        JOINT LeftHandPinky3
                        {
                          OFFSET 1.74189 0 0
                          CHANNELS 3 Zrotation Xrotation Yrotation
                          End Site
                          {
                            OFFSET 1.645 0 0
                          }
                        }
                      }
                    }
                  }
                }
              }
            }
          }
        }
      }
    }
  }
}
MOTION
Frames: 3
Frame Time: 0.00833333
5.997611870555185760e+02 -8.633296183206272401e-02 -9.066978178525596510e-01 -2.750493525651631632e+00 8.442953423786121459e-01 -1.561991128305321386e+00 -2.519245267036985592e+00 3.557311100567557283e+00 -2.431752563882304319e+00 -3.342829978135675173e-02 -1.381564705557018602e+00 1.020999541978722114e+00 -1.430471835716716766e-01 2.248994276459877206e-01 7.345312777688959294e-01 -3.963971418953572190e+00 3.290357879458466250e+00 -2.479532679898297509e+00 -2.298181095329890677e+00 -7.490036382156698425e-01 2.057787609052000199e+00 2.389412965042870818e-01 -4.563929533159665763e-01 1.612154369999216019e+00 -2.178912036606761582e+00 -6.915300394920020910e-01 1.198582548342778331e+00 -4.563795315539547204e-01 -2.485989910490202237e-01 3.494011451732030871e-01 -7.406731739196672493e-01 -8.296574873940442130e-01 6.184493396240406948e-01 1.905194407776409637e-01 5.261334509694926692e-02 -2.463923151298043346e-01 -2.544208506377220180e-01 -4.662704796306200716e-01 8.309108291346964492e+00 4.414192099193344099e+00 3.924099208827487306e+00 -9.834200486627608484e+00 -1.892438482186572068e+00 1.238610003986893915e+00 3.313729562422865982e+00 -1.935224424094382201e+01 -4.152792671989673501e+00 6.504292504572038780e+00 2.578202179153918916e+00 3.465426265884710588e+00 -1.196650694884242796e+02 6.544308463225127603e+00 2.800883824838214853e+00 -4.377854708833456066e+00 0.000000000000000000e+00 0.000000000000000000e+00 0.000000000000000000e+00 -8.770942560546029425e-16 1.614213405651509999e-15 0.000000000000000000e+00 -8.095081535712430843e-16 3.477168606086292540e-15 0.000000000000000000e+00 -1.744132547064701561e-15 1.520936031826458671e-15 -5.407248936338314999e-16 0.000000000000000000e+00 0.000000000000000000e+00 0.000000000000000000e+00 0.000000000000000000e+00 -2.963274462510541267e-15 2.940325706936806344e-15 0.000000000000000000e+00 -7.266195080809427610e-16 -2.259245750902237923e-16 -1.744132547064701561e-15 1.520936031826458671e-15 -5.407248936338314999e-16 0.000000000000000000e+00 7.078788648553487296e-16 3.041936039947626545e-15 0.000000000000000000e+00 2.986586909648501474e-16 -4.632811681722957543e-15 0.000000000000000000e+00 -2.052149549036357208e-15 1.712293052455112538e-15 -1.744132547064701561e-15 1.520936031826458671e-15 -5.407248936338314999e-16 0.000000000000000000e+00 0.000000000000000000e+00 0.000000000000000000e+00 0.000000000000000000e+00 -1.093838225839139512e-15 -1.943007905966953330e-15 0.000000000000000000e+00 2.879409151636288164e-16 1.381206436069535313e-15 -1.744132547064701561e-15 1.520936031826458671e-15 -5.407248936338314999e-16 0.000000000000000000e+00 0.000000000000000000e+00 0.000000000000000000e+00 0.000000000000000000e+00 -1.362166813365674645e-15 -3.681788717350088869e-15 0.000000000000000000e+00 2.318318676220285397e-15 -3.099271213432031023e-15 8.551248046076926901e-01 -5.481792392194865249e-01 2.707264643613061850e+00 -8.209519587731467283e+00 -4.933826053327400096e+00 9.662152485129444912e+00 -4.450916761556761259e+01 -7.313108689777193305e+00 -3.999725512175597686e+01 1.668362688430613971e+01 -2.163928897661094197e+00 2.468956524873180847e+00 0.000000000000000000e+00 0.000000000000000000e+00 0.000000000000000000e+00 -6.135549459605849568e-16 1.579404821035203733e-15 0.000000000000000000e+00 8.105257657453565593e-16 1.345607382327553493e-15 0.000000000000000000e+00 2.172424111409162702e-15 -1.363454507017774530e-15 5.077556238523315201e-16 0.000000000000000000e+00 0.000000000000000000e+00 0.000000000000000000e+00 0.000000000000000000e+00 2.180945174508669178e-15 -2.559417298477041483e-15 0.000000000000000000e+00 3.685273553221977904e-15 -4.898595362431579737e-15 2.172424111409162702e-15 -1.363454507017774530e-15 5.077556238523315201e-16 0.000000000000000000e+00 -4.895725566739081324e-16 -8.681147146631068516e-16 0.000000000000000000e+00 1.625220393190200574e-15 8.959540501976060622e-16 0.000000000000000000e+00 3.955351894300055871e-15 -6.407220737344481867e-15 2.172424111409162702e-15 -1.363454507017774530e-15 5.077556238523315201e-16 0.000000000000000000e+00 0.000000000000000000e+00 0.000000000000000000e+00 0.000000000000000000e+00 1.522341895529592999e-16 -5.658316126701708576e-15 0.000000000000000000e+00 -2.531256904939137706e-16 -3.452180667005272094e-15 2.172424111409162702e-15 -1.363454507017774530e-15 5.077556238523315201e-16 0.000000000000000000e+00 0.000000000000000000e+00 0.000000000000000000e+00 0.000000000000000000e+00 -5.035270727775561283e-16 -1.933275953684100797e-15 0.000000000000000000e+00 6.234515062176120619e-16 -3.110911766044192674e-15
5.997214471736638188e+02 -9.209708078006054177e-02 -8.828198293859079726e-01 -2.911822542312357154e+00 7.449260619036984776e-01 -1.931795638598372555e+00 -2.127259233131101102e+00 3.772100359997350605e+00 -1.987445473165579068e+00 -5.761138192396544205e-02 -1.451397691008775581e+00 1.077472824234407600e+00 -1.120521045012901479e-01 3.063284261289787036e-01 8.435436032534396888e-01 -4.020914806063708546e+00 3.596968477736802505e+00 -2.357786354239861382e+00 -2.397003144251771189e+00 -7.487552664666278224e-01 2.206803207903314856e+00 2.602469748051090548e-01 -5.350775517359086519e-01 1.619914701004685043e+00 -2.283509869852277330e+00 -8.229751331045568330e-01 1.213080686540821462e+00 -4.834694196487618334e-01 -2.840586342157709887e-01 3.520204687676591893e-01 -7.856168003788054355e-01 -8.825206992668079842e-01 6.197466431154983191e-01 1.927327706917178751e-01 4.544461269883521420e-02 -2.274188470699938791e-01 -3.269815656877767540e-01 -4.812511263670390949e-01 8.883622101446375652e+00 4.517852820639220113e+00 3.898818028011163062e+00 -9.923289759466072724e+00 -1.905758529433902781e+00 1.330863372959917745e+00 3.659803311781379520e+00 -1.989086764646157235e+01 -4.665035235584247708e+00 5.939864035224753813e+00 2.682875481088220049e+00 3.565830661519638234e+00 -1.122144253874041766e+02 6.485830231438679760e+00 3.153522606132776129e+00 -5.213255397756956455e+00 0.000000000000000000e+00 0.000000000000000000e+00 0.000000000000000000e+00 -9.126073410990571241e-16 2.400889323993888747e-15 0.000000000000000000e+00 -1.792457716933358015e-15 4.106421417927644177e-15 0.000000000000000000e+00 -1.869761779028727938e-15 1.756867017565471938e-15 -6.548956718829180357e-16 0.000000000000000000e+00 0.000000000000000000e+00 0.000000000000000000e+00 0.000000000000000000e+00 -4.131002814356534600e-15 1.493251832344129785e-15 0.000000000000000000e+00 -9.698168118835902334e-16 -2.634376567611473392e-15 -1.869761779028727938e-15 1.756867017565471938e-15 -6.548956718829180357e-16 0.000000000000000000e+00 8.796848733554386342e-16 2.717266625392232974e-15 0.000000000000000000e+00 -1.719403132302534036e-16 -5.573457231337299246e-15 0.000000000000000000e+00 -2.464220420266101281e-15 -3.868747205820352837e-16 -1.869761779028727938e-15 1.756867017565471938e-15 -6.548956718829180357e-16 0.000000000000000000e+00 0.000000000000000000e+00 0.000000000000000000e+00 0.000000000000000000e+00 -1.644737842890808371e-15 -2.499249391679641699e-15 0.000000000000000000e+00 1.011960767439074044e-16 -6.669807499788627739e-16 -1.869761779028727938e-15 1.756867017565471938e-15 -6.548956718829180357e-16 0.000000000000000000e+00 0.000000000000000000e+00 0.000000000000000000e+00 0.000000000000000000e+00 -2.208674807491494084e-15 -5.807465253935476922e-15 0.000000000000000000e+00 1.572474726350171360e-15 -5.118812442696466597e-15 8.843513027413103522e-01 -6.346775614436617197e-01 2.731474441111989115e+00 -7.815241444706371610e+00 -5.228837264533084728e+00 9.016779029242606214e+00 -4.387394570652111270e+01 -7.178814539236597625e+00 -3.945475990210257322e+01 1.574934726374758220e+01 -3.032917793288547603e+00 9.639630770781570934e-01 0.000000000000000000e+00 0.000000000000000000e+00 0.000000000000000000e+00 -9.095239326082639784e-16 1.482285833144204556e-15 0.000000000000000000e+00 -2.874147724942799684e-16 1.349821672638544689e-15 0.000000000000000000e+00 2.209710384965276411e-15 -1.389233437234585054e-15 6.463364025141304944e-16 0.000000000000000000e+00 0.000000000000000000e+00 0.000000000000000000e+00 0.000000000000000000e+00 2.622670350803541225e-15 -2.763598988944669341e-15 0.000000000000000000e+00 4.082129418846747713e-15 -5.087218730368226161e-15 2.209710384965276411e-15 -1.389233437234585054e-15 6.463364025141304944e-16 0.000000000000000000e+00 -3.419742254447871832e-16 -1.152758776032498272e-15 0.000000000000000000e+00 1.825701203188386301e-15 9.354852047678210949e-16 0.000000000000000000e+00 3.740210039255317752e-15 -7.206489672337813886e-15 2.209710384965276411e-15 -1.389233437234585054e-15 6.463364025141304944e-16 0.000000000000000000e+00 0.000000000000000000e+00 0.000000000000000000e+00 0.000000000000000000e+00 -4.570841158781670326e-16 -6.063108747495835461e-15 0.000000000000000000e+00 -6.117717368479921263e-16 -3.819178949763422251e-15 2.209710384965276411e-15 -1.389233437234585054e-15 6.463364025141304944e-16 0.000000000000000000e+00 0.000000000000000000e+00 0.000000000000000000e+00 0.000000000000000000e+00 -5.985526567547755749e-16 -1.911117038130565632e-15 0.000000000000000000e+00 -2.420024742493518483e-17 -3.289724964328153231e-15
5.996810873971717228e+02 -9.716296230126883482e-02 -8.552084446283237940e-01 -3.067622802566207341e+00 6.348432012604167118e-01 -2.305101885729931244e+00 -1.710072266817787678e+00 3.979126614290968256e+00 -1.516304027243343677e+00 -8.413342663855405412e-02 -1.520740839933419686e+00 1.133912612107902618e+00 -8.066554352201778244e-02 3.902170052254814170e-01 9.493594305813989331e-01 -4.060402954446521662e+00 3.897804128043650618e+00 -2.221176823166604031e+00 -2.487973785669207683e+00 -7.398700521597793012e-01 2.346878884899900708e+00 2.780127408251715782e-01 -6.151350487576041637e-01 1.628123570981678592e+00 -2.384353890418232869e+00 -9.569665825711974882e-01 1.224890627936883192e+00 -5.098780551571999720e-01 -3.196089071707047813e-01 3.536129227514785978e-01 -8.294482040003126055e-01 -9.352146873817722694e-01 6.188880791960003069e-01 1.943309299102551069e-01 3.795739232743793740e-02 -2.070174456430580734e-01 -4.052489588771371887e-01 -4.959964535444237321e-01 9.455494690321140538e+00 4.610847836149337020e+00 3.868887168252695297e+00 -9.991148242474110930e+00 -1.926002319507135185e+00 1.410160071266390869e+00 3.997790514148452878e+00 -2.035588968559165224e+01 -5.183742872502279830e+00 5.324090879629176598e+00 2.741365499634364600e+00 3.674491489003294475e+00 -1.037314192228565730e+02 6.401815507121799698e+00 3.515859941679954304e+00 -6.061867936302254734e+00 0.000000000000000000e+00 0.000000000000000000e+00 0.000000000000000000e+00 -9.745535613481431508e-16 3.146402518545558955e-15 0.000000000000000000e+00 -2.760200489023038047e-15 4.718131930052693205e-15 0.000000000000000000e+00 -1.911756058764603242e-15 1.976894677864956251e-15 -8.424398530511563727e-16 0.000000000000000000e+00 0.000000000000000000e+00 0.000000000000000000e+00 0.000000000000000000e+00 -5.287206208858497832e-15 2.868388155636546843e-17 0.000000000000000000e+00 -1.183167534056628563e-15 -5.125899412575375301e-15 -1.911756058764603242e-15 1.976894677864956251e-15 -8.424398530511563727e-16 0.000000000000000000e+00 1.065962831355143476e-15 2.362939859563186930e-15 0.000000000000000000e+00 -6.592096482708768303e-16 -6.463659647074364835e-15 0.000000000000000000e+00 -2.907676643089932036e-15 -2.641067909240358622e-15 -1.911756058764603242e-15 1.976894677864956251e-15 -8.424398530511563727e-16 0.000000000000000000e+00 0.000000000000000000e+00 0.000000000000000000e+00 0.000000000000000000e+00 -2.172209511361541519e-15 -3.025761910451047528e-15 0.000000000000000000e+00 -8.376404458164111900e-17 -2.822661352476840771e-15 -1.911756058764603242e-15 1.976894677864956251e-15 -8.424398530511563727e-16 0.000000000000000000e+00 0.000000000000000000e+00 0.000000000000000000e+00 0.000000000000000000e+00 -2.994286507146206362e-15 -7.843565964403449684e-15 0.000000000000000000e+00 7.515043100134845880e-16 -7.442935642404799282e-15 9.200292681037062215e-01 -7.201603220920960169e-01 2.758527713033575690e+00 -7.388151354087830747e+00 -5.527505459975465385e+00 8.321022541638383174e+00 -4.315510020172641958e+01 -6.983970641037744898e+00 -3.887810761193933473e+01 1.474200629479505587e+01 -3.931895087829617275e+00 -6.364356955254968362e-01 0.000000000000000000e+00 0.000000000000000000e+00 0.000000000000000000e+00 -1.221692493533872309e-15 1.385116704811028286e-15 0.000000000000000000e+00 -1.392705330794521531e-15 1.324499851541373815e-15 0.000000000000000000e+00 2.235396696589890582e-15 -1.407361741311982515e-15 7.909557072952838127e-16 0.000000000000000000e+00 0.000000000000000000e+00 0.000000000000000000e+00 0.000000000000000000e+00 3.043497990777844285e-15 -2.895867513014415321e-15 0.000000000000000000e+00 4.430523757390562679e-15 -5.238339719969979788e-15 2.235396696589890582e-15 -1.407361741311982515e-15 7.909557072952838127e-16 0.000000000000000000e+00 -1.937093179270320975e-16 -1.443237228658917198e-15 0.000000000000000000e+00 1.986666991375672588e-15 9.363386589071164312e-16 0.000000000000000000e+00 3.477315203804562497e-15 -7.926288947307549744e-15 2.235396696589890582e-15 -1.407361741311982515e-15 7.909557072952838127e-16 0.000000000000000000e+00 0.000000000000000000e+00 0.000000000000000000e+00 0.000000000000000000e+00 -1.078460628298497888e-15 -6.454754783533891893e-15 0.000000000000000000e+00 -9.690613348246231742e-16 -4.162952653077691761e-15 2.235396696589890582e-15 -1.407361741311982515e-15 7.909557072952838127e-16 0.000000000000000000e+00 0.000000000000000000e+00 0.000000000000000000e+00 0.000000000000000000e+00 -7.063352665276639713e-16 -1.870497648759864856e-15 0.000000000000000000e+00 -6.986042948028700376e-16 -3.476054516562654692e-15
